<svg version="1.1" id="Capa_1" xmlns="http://www.w3.org/2000/svg" xmlns:xlink="http://www.w3.org/1999/xlink" x="0px" y="0px" width="612px" height="612px" viewBox="0 0 612 612" style="enable-background:new 0 0 612 612;" xml:space="preserve" class="svgHome">
  <path d="M360.4,365.5v171.4c0,11.199-8.2,19.5-18.4,19.5h-66.8c-11.2,0-19.5-9.201-19.5-19.5V365.5
		c-46.1-19.5-78-65.701-78-119.101c0-43.1,19.5-81,51.3-104.7c0,0,0,100.6,1,100.6L294.7,307c7.2,7.199,19.5,7.199,26.7,0
		l64.699-64.701v-100.5c31.9,24.7,52.301,61.6,52.301,104.7C438.4,300,406.7,345.1,360.4,365.5z M612,346.1v170.4v22.6
		c0,8.199-6.2,15.4-14.4,15.4h-76c-8.199,0-14.399-7.201-14.399-15.4v-22.6v-25.701H375.9v-117C409.8,355.4,436.4,324.5,447.7,287.6
		h80L463.1,152c-13.399-26.7-24.699-32.9-52.3-32.9H201.4c-27.7,0-37.9,6.2-51.3,32.9L85.4,287.6h80
		c11.2,36.9,37.9,67.801,71.8,86.199V490.9H105.8V516.6v22.6c0,8.201-6.2,15.4-14.4,15.4h-76c-8.2,0-15.4-7.199-15.4-15.4v-22.6
		V346.1c0-17.4,3-31.9,12.2-51.3L107,97.7c11.2-22.6,40.1-42.1,65.7-42.1h266.8c25.7,0,54.3,18.4,65.7,42.1l94.399,197.1
		C608.8,313.199,612,327.6,612,346.1z M52.5,388.199c0,26.701,21.6,47.301,47.3,47.301c25.7,0,47.3-20.5,47.3-47.301
		c0-26.799-20.5-48.299-47.3-48.299C73,339.9,52.5,361.5,52.5,388.199z M562.7,388.199c0-26.699-21.601-48.299-48.3-48.299
		c-26.7,0-47.301,21.6-47.301,48.299c0,26.701,20.5,47.301,47.301,47.301C541.2,435.5,562.7,414.799,562.7,388.199z" />
</svg>